<mxfile host="app.diagrams.net" modified="2021-08-26T09:27:56.881Z" agent="5.0 (Windows NT 10.0; Win64; x64) AppleWebKit/537.36 (KHTML, like Gecko) Chrome/92.0.4515.159 Safari/537.36" etag="J1OZQHD9syGuBTGLffXh" version="14.9.9" type="github">
  <diagram id="o0DlsNENsoFimQwdIdRT" name="Page-1">
    <mxGraphModel dx="2062" dy="828" grid="1" gridSize="10" guides="1" tooltips="1" connect="1" arrows="1" fold="1" page="0" pageScale="1" pageWidth="850" pageHeight="1100" background="#283618" math="0" shadow="0">
      <root>
        <mxCell id="0" />
        <mxCell id="1" parent="0" />
        <mxCell id="IQcZgMmbsIFZZEIsL7-R-1" value="Edible Products&amp;nbsp;" style="rounded=0;whiteSpace=wrap;html=1;fillColor=#BC6C25;strokeColor=#DDA15E;fontColor=#FEFAE0;" parent="1" vertex="1">
          <mxGeometry x="1460" y="220" width="130" height="40" as="geometry" />
        </mxCell>
        <mxCell id="1HTSOsvzioREoPSIAo-s-49" style="edgeStyle=orthogonalEdgeStyle;curved=0;rounded=1;sketch=0;orthogonalLoop=1;jettySize=auto;html=1;entryX=1;entryY=0.5;entryDx=0;entryDy=0;fontColor=#FEFAE0;strokeColor=#DDA15E;fillColor=#BC6C25;" edge="1" parent="1" source="IQcZgMmbsIFZZEIsL7-R-3" target="6ZJNAHarv_-wQdy6G1yE-23">
          <mxGeometry relative="1" as="geometry">
            <Array as="points">
              <mxPoint x="475" y="365" />
              <mxPoint x="475" y="370" />
            </Array>
          </mxGeometry>
        </mxCell>
        <mxCell id="IQcZgMmbsIFZZEIsL7-R-3" value="Inventory" style="rounded=0;whiteSpace=wrap;html=1;fillColor=#BC6C25;strokeColor=#DDA15E;fontColor=#FEFAE0;" parent="1" vertex="1">
          <mxGeometry x="605" y="354.68" width="110" height="20.63" as="geometry" />
        </mxCell>
        <mxCell id="1HTSOsvzioREoPSIAo-s-8" style="edgeStyle=orthogonalEdgeStyle;curved=0;rounded=1;sketch=0;orthogonalLoop=1;jettySize=auto;html=1;entryX=0.413;entryY=-0.017;entryDx=0;entryDy=0;entryPerimeter=0;fontColor=#FEFAE0;strokeColor=#DDA15E;fillColor=#BC6C25;" edge="1" parent="1" source="IQcZgMmbsIFZZEIsL7-R-6" target="6ZJNAHarv_-wQdy6G1yE-23">
          <mxGeometry relative="1" as="geometry">
            <Array as="points">
              <mxPoint x="270" y="303" />
              <mxPoint x="266" y="303" />
              <mxPoint x="266" y="338" />
            </Array>
          </mxGeometry>
        </mxCell>
        <mxCell id="IQcZgMmbsIFZZEIsL7-R-6" value="Name" style="ellipse;whiteSpace=wrap;html=1;rotation=0;fillColor=#BC6C25;strokeColor=#DDA15E;fontColor=#FEFAE0;" parent="1" vertex="1">
          <mxGeometry x="240" y="237.18" width="60" height="30" as="geometry" />
        </mxCell>
        <mxCell id="IQcZgMmbsIFZZEIsL7-R-19" style="edgeStyle=orthogonalEdgeStyle;rounded=0;orthogonalLoop=1;jettySize=auto;html=1;entryX=0.75;entryY=0;entryDx=0;entryDy=0;strokeColor=#DDA15E;fontColor=#FEFAE0;labelBackgroundColor=#283618;" parent="1" source="IQcZgMmbsIFZZEIsL7-R-13" target="IQcZgMmbsIFZZEIsL7-R-1" edge="1">
          <mxGeometry relative="1" as="geometry" />
        </mxCell>
        <mxCell id="IQcZgMmbsIFZZEIsL7-R-13" value="Nutrition&amp;nbsp;" style="ellipse;whiteSpace=wrap;html=1;rotation=0;fillColor=#BC6C25;strokeColor=#DDA15E;fontColor=#FEFAE0;" parent="1" vertex="1">
          <mxGeometry x="1540" y="140" width="60" height="30" as="geometry" />
        </mxCell>
        <mxCell id="1HTSOsvzioREoPSIAo-s-7" style="edgeStyle=orthogonalEdgeStyle;curved=0;rounded=1;sketch=0;orthogonalLoop=1;jettySize=auto;html=1;entryX=0.313;entryY=-0.05;entryDx=0;entryDy=0;fontColor=#FEFAE0;strokeColor=#DDA15E;fillColor=#BC6C25;entryPerimeter=0;" edge="1" parent="1" source="IQcZgMmbsIFZZEIsL7-R-14" target="6ZJNAHarv_-wQdy6G1yE-23">
          <mxGeometry relative="1" as="geometry">
            <Array as="points">
              <mxPoint x="200" y="285" />
              <mxPoint x="242" y="285" />
            </Array>
          </mxGeometry>
        </mxCell>
        <mxCell id="IQcZgMmbsIFZZEIsL7-R-14" value="Product Id" style="ellipse;whiteSpace=wrap;html=1;rotation=0;fillColor=#BC6C25;strokeColor=#DDA15E;fontColor=#FEFAE0;" parent="1" vertex="1">
          <mxGeometry x="170" y="239.68" width="60" height="30" as="geometry" />
        </mxCell>
        <mxCell id="IQcZgMmbsIFZZEIsL7-R-33" value="" style="edgeStyle=orthogonalEdgeStyle;rounded=0;orthogonalLoop=1;jettySize=auto;html=1;strokeColor=#DDA15E;fontColor=#FEFAE0;labelBackgroundColor=#283618;" parent="1" edge="1">
          <mxGeometry relative="1" as="geometry">
            <mxPoint x="2098.75" y="166.87" as="sourcePoint" />
            <mxPoint x="2000" y="219.37" as="targetPoint" />
          </mxGeometry>
        </mxCell>
        <mxCell id="IQcZgMmbsIFZZEIsL7-R-35" value="" style="edgeStyle=orthogonalEdgeStyle;rounded=0;orthogonalLoop=1;jettySize=auto;html=1;strokeColor=#DDA15E;fontColor=#FEFAE0;labelBackgroundColor=#283618;" parent="1" target="IQcZgMmbsIFZZEIsL7-R-34" edge="1">
          <mxGeometry relative="1" as="geometry">
            <mxPoint x="2125" y="196.87" as="sourcePoint" />
          </mxGeometry>
        </mxCell>
        <mxCell id="IQcZgMmbsIFZZEIsL7-R-32" value="User Discount&amp;nbsp;" style="whiteSpace=wrap;html=1;fillColor=#BC6C25;strokeColor=#DDA15E;fontColor=#FEFAE0;" parent="1" vertex="1">
          <mxGeometry x="1960" y="219.68" width="100" height="20" as="geometry" />
        </mxCell>
        <mxCell id="IQcZgMmbsIFZZEIsL7-R-34" value="Coupon Discount&amp;nbsp;" style="whiteSpace=wrap;html=1;fillColor=#BC6C25;strokeColor=#DDA15E;fontColor=#FEFAE0;" parent="1" vertex="1">
          <mxGeometry x="2110" y="249.37" width="120" height="20.31" as="geometry" />
        </mxCell>
        <mxCell id="5yPDVFOMv4cVIeS-5JL2-64" style="edgeStyle=orthogonalEdgeStyle;curved=0;rounded=1;sketch=0;orthogonalLoop=1;jettySize=auto;html=1;entryX=0.5;entryY=0;entryDx=0;entryDy=0;fontColor=#FEFAE0;endArrow=classic;endFill=1;strokeColor=#DDA15E;fillColor=#BC6C25;labelBackgroundColor=#283618;" parent="1" source="IQcZgMmbsIFZZEIsL7-R-38" target="5yPDVFOMv4cVIeS-5JL2-46" edge="1">
          <mxGeometry relative="1" as="geometry" />
        </mxCell>
        <mxCell id="IQcZgMmbsIFZZEIsL7-R-38" value="Discount&amp;nbsp;" style="triangle;whiteSpace=wrap;html=1;fontColor=#FEFAE0;rotation=90;fillColor=#BC6C25;strokeColor=#DDA15E;" parent="1" vertex="1">
          <mxGeometry x="2096.88" y="130" width="58.75" height="82.5" as="geometry" />
        </mxCell>
        <mxCell id="1HTSOsvzioREoPSIAo-s-28" style="edgeStyle=orthogonalEdgeStyle;curved=0;rounded=1;sketch=0;orthogonalLoop=1;jettySize=auto;html=1;fontColor=#FEFAE0;strokeColor=#DDA15E;fillColor=#BC6C25;" edge="1" parent="1" source="6ZJNAHarv_-wQdy6G1yE-3">
          <mxGeometry relative="1" as="geometry">
            <mxPoint x="710" y="350" as="targetPoint" />
          </mxGeometry>
        </mxCell>
        <mxCell id="6ZJNAHarv_-wQdy6G1yE-3" value="Units" style="ellipse;whiteSpace=wrap;html=1;rotation=0;fillColor=#BC6C25;strokeColor=#DDA15E;fontColor=#FEFAE0;" parent="1" vertex="1">
          <mxGeometry x="790" y="272.5" width="60" height="30" as="geometry" />
        </mxCell>
        <mxCell id="6ZJNAHarv_-wQdy6G1yE-10" style="edgeStyle=orthogonalEdgeStyle;rounded=0;orthogonalLoop=1;jettySize=auto;html=1;entryX=1;entryY=0;entryDx=0;entryDy=0;fontColor=#FEFAE0;strokeColor=#DDA15E;labelBackgroundColor=#283618;" parent="1" source="6ZJNAHarv_-wQdy6G1yE-5" target="IQcZgMmbsIFZZEIsL7-R-3" edge="1">
          <mxGeometry relative="1" as="geometry" />
        </mxCell>
        <mxCell id="6ZJNAHarv_-wQdy6G1yE-5" value="In cart" style="ellipse;whiteSpace=wrap;html=1;rotation=0;fillColor=#BC6C25;strokeColor=#DDA15E;fontColor=#FEFAE0;" parent="1" vertex="1">
          <mxGeometry x="790" y="312.5" width="60" height="30" as="geometry" />
        </mxCell>
        <mxCell id="1HTSOsvzioREoPSIAo-s-30" style="edgeStyle=orthogonalEdgeStyle;curved=0;rounded=1;sketch=0;orthogonalLoop=1;jettySize=auto;html=1;entryX=1;entryY=0.75;entryDx=0;entryDy=0;fontColor=#FEFAE0;strokeColor=#DDA15E;fillColor=#BC6C25;" edge="1" parent="1" source="6ZJNAHarv_-wQdy6G1yE-6" target="IQcZgMmbsIFZZEIsL7-R-3">
          <mxGeometry relative="1" as="geometry" />
        </mxCell>
        <mxCell id="6ZJNAHarv_-wQdy6G1yE-6" value="In order" style="ellipse;whiteSpace=wrap;html=1;rotation=0;fillColor=#BC6C25;strokeColor=#DDA15E;fontColor=#FEFAE0;" parent="1" vertex="1">
          <mxGeometry x="790" y="355" width="60" height="30" as="geometry" />
        </mxCell>
        <mxCell id="6ZJNAHarv_-wQdy6G1yE-23" value="Product" style="whiteSpace=wrap;html=1;align=center;fontColor=#FEFAE0;fillColor=#BC6C25;strokeColor=#DDA15E;" parent="1" vertex="1">
          <mxGeometry x="195" y="339.05" width="150" height="60.95" as="geometry" />
        </mxCell>
        <mxCell id="1HTSOsvzioREoPSIAo-s-58" style="edgeStyle=orthogonalEdgeStyle;curved=0;rounded=1;sketch=0;orthogonalLoop=1;jettySize=auto;html=1;entryX=1;entryY=0.5;entryDx=0;entryDy=0;fontColor=#FEFAE0;strokeColor=#DDA15E;fillColor=#BC6C25;" edge="1" parent="1" source="5yPDVFOMv4cVIeS-5JL2-1" target="1HTSOsvzioREoPSIAo-s-47">
          <mxGeometry relative="1" as="geometry" />
        </mxCell>
        <mxCell id="5yPDVFOMv4cVIeS-5JL2-1" value="Type" style="whiteSpace=wrap;html=1;fillColor=#BC6C25;strokeColor=#DDA15E;fontColor=#FEFAE0;" parent="1" vertex="1">
          <mxGeometry x="310" y="510" width="105" height="20" as="geometry" />
        </mxCell>
        <mxCell id="1HTSOsvzioREoPSIAo-s-51" style="edgeStyle=orthogonalEdgeStyle;curved=0;rounded=1;sketch=0;orthogonalLoop=1;jettySize=auto;html=1;entryX=1;entryY=0.5;entryDx=0;entryDy=0;fontColor=#FEFAE0;strokeColor=#DDA15E;fillColor=#BC6C25;" edge="1" parent="1" source="5yPDVFOMv4cVIeS-5JL2-2" target="5yPDVFOMv4cVIeS-5JL2-1">
          <mxGeometry relative="1" as="geometry" />
        </mxCell>
        <mxCell id="1HTSOsvzioREoPSIAo-s-59" style="edgeStyle=orthogonalEdgeStyle;curved=0;rounded=1;sketch=0;orthogonalLoop=1;jettySize=auto;html=1;entryX=1;entryY=0.25;entryDx=0;entryDy=0;fontColor=#FEFAE0;strokeColor=#DDA15E;fillColor=#BC6C25;" edge="1" parent="1" source="5yPDVFOMv4cVIeS-5JL2-2" target="1HTSOsvzioREoPSIAo-s-47">
          <mxGeometry relative="1" as="geometry">
            <Array as="points">
              <mxPoint x="460" y="452" />
            </Array>
          </mxGeometry>
        </mxCell>
        <mxCell id="5yPDVFOMv4cVIeS-5JL2-2" value="Sub Type" style="whiteSpace=wrap;html=1;fillColor=#BC6C25;strokeColor=#DDA15E;fontColor=#FEFAE0;" parent="1" vertex="1">
          <mxGeometry x="540" y="510" width="100" height="20" as="geometry" />
        </mxCell>
        <mxCell id="5yPDVFOMv4cVIeS-5JL2-4" style="edgeStyle=orthogonalEdgeStyle;curved=0;rounded=1;sketch=0;orthogonalLoop=1;jettySize=auto;html=1;fontColor=#FEFAE0;strokeColor=#DDA15E;fillColor=#BC6C25;labelBackgroundColor=#283618;" parent="1" source="5yPDVFOMv4cVIeS-5JL2-3" edge="1">
          <mxGeometry relative="1" as="geometry">
            <mxPoint x="1460" y="250" as="targetPoint" />
            <Array as="points">
              <mxPoint x="1430" y="250" />
            </Array>
          </mxGeometry>
        </mxCell>
        <mxCell id="5yPDVFOMv4cVIeS-5JL2-3" value="Brand &amp;nbsp;" style="whiteSpace=wrap;html=1;fillColor=#BC6C25;strokeColor=#DDA15E;fontColor=#FEFAE0;" parent="1" vertex="1">
          <mxGeometry x="1330" y="260" width="100" height="20" as="geometry" />
        </mxCell>
        <mxCell id="1HTSOsvzioREoPSIAo-s-56" style="edgeStyle=orthogonalEdgeStyle;curved=0;rounded=1;sketch=0;orthogonalLoop=1;jettySize=auto;html=1;entryX=0;entryY=0.25;entryDx=0;entryDy=0;fontColor=#FEFAE0;strokeColor=#DDA15E;fillColor=#BC6C25;" edge="1" parent="1" source="5yPDVFOMv4cVIeS-5JL2-8" target="1HTSOsvzioREoPSIAo-s-47">
          <mxGeometry relative="1" as="geometry" />
        </mxCell>
        <mxCell id="5yPDVFOMv4cVIeS-5JL2-8" value="Flavor&amp;nbsp;" style="whiteSpace=wrap;html=1;fillColor=#BC6C25;strokeColor=#DDA15E;fontColor=#FEFAE0;" parent="1" vertex="1">
          <mxGeometry x="5" y="510" width="90" height="22.5" as="geometry" />
        </mxCell>
        <mxCell id="1HTSOsvzioREoPSIAo-s-57" style="edgeStyle=orthogonalEdgeStyle;curved=0;rounded=1;sketch=0;orthogonalLoop=1;jettySize=auto;html=1;entryX=1;entryY=0.75;entryDx=0;entryDy=0;fontColor=#FEFAE0;strokeColor=#DDA15E;fillColor=#BC6C25;" edge="1" parent="1" source="5yPDVFOMv4cVIeS-5JL2-9" target="1HTSOsvzioREoPSIAo-s-47">
          <mxGeometry relative="1" as="geometry" />
        </mxCell>
        <mxCell id="5yPDVFOMv4cVIeS-5JL2-9" value="Weight&amp;nbsp;" style="whiteSpace=wrap;html=1;fillColor=#BC6C25;strokeColor=#DDA15E;fontColor=#FEFAE0;" parent="1" vertex="1">
          <mxGeometry x="130" y="510" width="100" height="20" as="geometry" />
        </mxCell>
        <mxCell id="5yPDVFOMv4cVIeS-5JL2-17" style="edgeStyle=orthogonalEdgeStyle;curved=0;rounded=1;sketch=0;orthogonalLoop=1;jettySize=auto;html=1;fontColor=#FEFAE0;strokeColor=#DDA15E;fillColor=#BC6C25;labelBackgroundColor=#283618;" parent="1" source="5yPDVFOMv4cVIeS-5JL2-16" edge="1">
          <mxGeometry relative="1" as="geometry">
            <mxPoint x="1330" y="263" as="targetPoint" />
          </mxGeometry>
        </mxCell>
        <mxCell id="5yPDVFOMv4cVIeS-5JL2-16" value="Name" style="ellipse;whiteSpace=wrap;html=1;rotation=0;fillColor=#BC6C25;strokeColor=#DDA15E;fontColor=#FEFAE0;" parent="1" vertex="1">
          <mxGeometry x="1220" y="234.68" width="60" height="35" as="geometry" />
        </mxCell>
        <mxCell id="5yPDVFOMv4cVIeS-5JL2-19" style="edgeStyle=orthogonalEdgeStyle;curved=0;rounded=1;sketch=0;orthogonalLoop=1;jettySize=auto;html=1;entryX=0;entryY=0;entryDx=0;entryDy=0;fontColor=#FEFAE0;strokeColor=#DDA15E;fillColor=#BC6C25;labelBackgroundColor=#283618;" parent="1" source="5yPDVFOMv4cVIeS-5JL2-18" target="5yPDVFOMv4cVIeS-5JL2-3" edge="1">
          <mxGeometry relative="1" as="geometry" />
        </mxCell>
        <mxCell id="5yPDVFOMv4cVIeS-5JL2-18" value="Description&amp;nbsp;" style="ellipse;whiteSpace=wrap;html=1;rotation=0;fillColor=#BC6C25;strokeColor=#DDA15E;fontColor=#FEFAE0;" parent="1" vertex="1">
          <mxGeometry x="1220" y="190" width="60" height="35" as="geometry" />
        </mxCell>
        <mxCell id="5yPDVFOMv4cVIeS-5JL2-22" style="edgeStyle=orthogonalEdgeStyle;curved=0;rounded=1;sketch=0;orthogonalLoop=1;jettySize=auto;html=1;entryX=0.25;entryY=0;entryDx=0;entryDy=0;fontColor=#FEFAE0;strokeColor=#DDA15E;fillColor=#BC6C25;labelBackgroundColor=#283618;" parent="1" source="5yPDVFOMv4cVIeS-5JL2-21" target="5yPDVFOMv4cVIeS-5JL2-3" edge="1">
          <mxGeometry relative="1" as="geometry" />
        </mxCell>
        <mxCell id="5yPDVFOMv4cVIeS-5JL2-21" value="Images&amp;nbsp;" style="ellipse;shape=doubleEllipse;margin=3;whiteSpace=wrap;html=1;align=center;rounded=0;sketch=0;fontColor=#FEFAE0;strokeColor=#DDA15E;fillColor=#BC6C25;" parent="1" vertex="1">
          <mxGeometry x="1220" y="140" width="70" height="40" as="geometry" />
        </mxCell>
        <mxCell id="5yPDVFOMv4cVIeS-5JL2-73" style="edgeStyle=orthogonalEdgeStyle;curved=0;rounded=1;sketch=0;orthogonalLoop=1;jettySize=auto;html=1;fontColor=#FEFAE0;endArrow=classic;endFill=1;strokeColor=#DDA15E;fillColor=#BC6C25;labelBackgroundColor=#283618;" parent="1" source="5yPDVFOMv4cVIeS-5JL2-23" edge="1">
          <mxGeometry relative="1" as="geometry">
            <mxPoint x="200" y="757.5" as="targetPoint" />
          </mxGeometry>
        </mxCell>
        <mxCell id="5yPDVFOMv4cVIeS-5JL2-23" value="Images&amp;nbsp;" style="ellipse;shape=doubleEllipse;margin=3;whiteSpace=wrap;html=1;align=center;rounded=0;sketch=0;fontColor=#FEFAE0;strokeColor=#DDA15E;fillColor=#BC6C25;" parent="1" vertex="1">
          <mxGeometry x="20" y="857.5" width="70" height="40" as="geometry" />
        </mxCell>
        <mxCell id="5yPDVFOMv4cVIeS-5JL2-27" style="edgeStyle=orthogonalEdgeStyle;curved=0;rounded=1;sketch=0;orthogonalLoop=1;jettySize=auto;html=1;fontColor=#FEFAE0;strokeColor=#DDA15E;fillColor=#BC6C25;labelBackgroundColor=#283618;" parent="1" source="5yPDVFOMv4cVIeS-5JL2-24" edge="1">
          <mxGeometry relative="1" as="geometry">
            <mxPoint x="190" y="757.5" as="targetPoint" />
          </mxGeometry>
        </mxCell>
        <mxCell id="5yPDVFOMv4cVIeS-5JL2-24" value="Description&amp;nbsp;" style="ellipse;whiteSpace=wrap;html=1;rotation=0;fillColor=#BC6C25;strokeColor=#DDA15E;fontColor=#FEFAE0;" parent="1" vertex="1">
          <mxGeometry x="20" y="807.5" width="60" height="35" as="geometry" />
        </mxCell>
        <mxCell id="5yPDVFOMv4cVIeS-5JL2-30" value="Images&amp;nbsp;" style="ellipse;shape=doubleEllipse;margin=3;whiteSpace=wrap;html=1;align=center;rounded=0;sketch=0;fontColor=#FEFAE0;strokeColor=#DDA15E;fillColor=#BC6C25;" parent="1" vertex="1">
          <mxGeometry x="605" y="570" width="70" height="40" as="geometry" />
        </mxCell>
        <mxCell id="5yPDVFOMv4cVIeS-5JL2-31" value="Description&amp;nbsp;" style="ellipse;whiteSpace=wrap;html=1;rotation=0;fillColor=#BC6C25;strokeColor=#DDA15E;fontColor=#FEFAE0;" parent="1" vertex="1">
          <mxGeometry x="750" y="570" width="60" height="35" as="geometry" />
        </mxCell>
        <mxCell id="5yPDVFOMv4cVIeS-5JL2-32" value="Name" style="ellipse;whiteSpace=wrap;html=1;rotation=0;fillColor=#BC6C25;strokeColor=#DDA15E;fontColor=#FEFAE0;" parent="1" vertex="1">
          <mxGeometry x="680" y="570" width="60" height="35" as="geometry" />
        </mxCell>
        <mxCell id="5yPDVFOMv4cVIeS-5JL2-38" value="Percentage&amp;nbsp;" style="ellipse;whiteSpace=wrap;html=1;rotation=0;fillColor=#BC6C25;strokeColor=#DDA15E;fontColor=#FEFAE0;" parent="1" vertex="1">
          <mxGeometry x="2220" y="310" width="60" height="35" as="geometry" />
        </mxCell>
        <mxCell id="5yPDVFOMv4cVIeS-5JL2-46" value="Discount&amp;nbsp;" style="whiteSpace=wrap;html=1;fillColor=#BC6C25;strokeColor=#DDA15E;fontColor=#FEFAE0;" parent="1" vertex="1">
          <mxGeometry x="2250" y="259.68" width="120" height="20" as="geometry" />
        </mxCell>
        <mxCell id="5yPDVFOMv4cVIeS-5JL2-54" style="edgeStyle=orthogonalEdgeStyle;curved=0;rounded=1;sketch=0;orthogonalLoop=1;jettySize=auto;html=1;fontColor=#FEFAE0;strokeColor=#DDA15E;fillColor=#BC6C25;endArrow=classic;endFill=1;labelBackgroundColor=#283618;" parent="1" source="5yPDVFOMv4cVIeS-5JL2-50" edge="1">
          <mxGeometry relative="1" as="geometry">
            <mxPoint x="1980" y="240.0000000000001" as="targetPoint" />
          </mxGeometry>
        </mxCell>
        <mxCell id="5yPDVFOMv4cVIeS-5JL2-50" value="Percentage&amp;nbsp;" style="ellipse;whiteSpace=wrap;html=1;rotation=0;fillColor=#BC6C25;strokeColor=#DDA15E;fontColor=#FEFAE0;" parent="1" vertex="1">
          <mxGeometry x="1890" y="259.68" width="60" height="40" as="geometry" />
        </mxCell>
        <mxCell id="5yPDVFOMv4cVIeS-5JL2-55" style="edgeStyle=orthogonalEdgeStyle;curved=0;rounded=1;sketch=0;orthogonalLoop=1;jettySize=auto;html=1;fontColor=#FEFAE0;strokeColor=#DDA15E;fillColor=#BC6C25;labelBackgroundColor=#283618;" parent="1" edge="1">
          <mxGeometry relative="1" as="geometry">
            <mxPoint x="1990" y="240.0000000000001" as="targetPoint" />
            <mxPoint x="1950" y="330" as="sourcePoint" />
          </mxGeometry>
        </mxCell>
        <mxCell id="5yPDVFOMv4cVIeS-5JL2-57" style="edgeStyle=orthogonalEdgeStyle;curved=0;rounded=1;sketch=0;orthogonalLoop=1;jettySize=auto;html=1;entryX=0;entryY=0.5;entryDx=0;entryDy=0;fontColor=#FEFAE0;endArrow=classic;endFill=1;strokeColor=#DDA15E;fillColor=#BC6C25;labelBackgroundColor=#283618;" parent="1" source="5yPDVFOMv4cVIeS-5JL2-56" target="IQcZgMmbsIFZZEIsL7-R-32" edge="1">
          <mxGeometry relative="1" as="geometry" />
        </mxCell>
        <mxCell id="5yPDVFOMv4cVIeS-5JL2-56" value="User" style="rounded=0;whiteSpace=wrap;html=1;fillColor=#BC6C25;strokeColor=#DDA15E;fontColor=#FEFAE0;" parent="1" vertex="1">
          <mxGeometry x="1780" y="209.37" width="130" height="40" as="geometry" />
        </mxCell>
        <mxCell id="5yPDVFOMv4cVIeS-5JL2-60" style="edgeStyle=orthogonalEdgeStyle;curved=0;rounded=1;sketch=0;orthogonalLoop=1;jettySize=auto;html=1;entryX=0.5;entryY=1;entryDx=0;entryDy=0;fontColor=#FEFAE0;endArrow=classic;endFill=1;strokeColor=#DDA15E;fillColor=#BC6C25;labelBackgroundColor=#283618;" parent="1" source="5yPDVFOMv4cVIeS-5JL2-58" target="IQcZgMmbsIFZZEIsL7-R-34" edge="1">
          <mxGeometry relative="1" as="geometry">
            <Array as="points">
              <mxPoint x="2170" y="313" />
            </Array>
          </mxGeometry>
        </mxCell>
        <mxCell id="5yPDVFOMv4cVIeS-5JL2-58" value="Code" style="ellipse;whiteSpace=wrap;html=1;rotation=0;fillColor=#BC6C25;strokeColor=#DDA15E;fontColor=#FEFAE0;" parent="1" vertex="1">
          <mxGeometry x="2080" y="295" width="60" height="35" as="geometry" />
        </mxCell>
        <mxCell id="5yPDVFOMv4cVIeS-5JL2-83" style="edgeStyle=orthogonalEdgeStyle;curved=0;rounded=1;sketch=0;orthogonalLoop=1;jettySize=auto;html=1;fontColor=#FEFAE0;endArrow=classic;endFill=1;strokeColor=#DDA15E;fillColor=#BC6C25;labelBackgroundColor=#283618;" parent="1" source="5yPDVFOMv4cVIeS-5JL2-65" edge="1">
          <mxGeometry relative="1" as="geometry">
            <mxPoint x="2180" y="270.0000000000001" as="targetPoint" />
          </mxGeometry>
        </mxCell>
        <mxCell id="5yPDVFOMv4cVIeS-5JL2-65" value="Percentage&amp;nbsp;" style="ellipse;whiteSpace=wrap;html=1;rotation=0;fillColor=#BC6C25;strokeColor=#DDA15E;fontColor=#FEFAE0;" parent="1" vertex="1">
          <mxGeometry x="2080" y="345" width="60" height="40" as="geometry" />
        </mxCell>
        <mxCell id="5yPDVFOMv4cVIeS-5JL2-75" value="Percentage&amp;nbsp;" style="ellipse;whiteSpace=wrap;html=1;rotation=0;fillColor=#BC6C25;strokeColor=#DDA15E;fontColor=#FEFAE0;" parent="1" vertex="1">
          <mxGeometry x="2220" y="354.68" width="60" height="35" as="geometry" />
        </mxCell>
        <mxCell id="5yPDVFOMv4cVIeS-5JL2-76" value="User Discount Type&amp;nbsp;" style="whiteSpace=wrap;html=1;align=center;rounded=0;sketch=0;fontColor=#FEFAE0;strokeColor=#DDA15E;fillColor=#BC6C25;" parent="1" vertex="1">
          <mxGeometry x="1850" y="310" width="100" height="35" as="geometry" />
        </mxCell>
        <mxCell id="5yPDVFOMv4cVIeS-5JL2-84" style="edgeStyle=orthogonalEdgeStyle;curved=0;rounded=1;sketch=0;orthogonalLoop=1;jettySize=auto;html=1;fontColor=#FEFAE0;endArrow=classic;endFill=1;strokeColor=#DDA15E;fillColor=#BC6C25;labelBackgroundColor=#283618;" parent="1" source="5yPDVFOMv4cVIeS-5JL2-77" edge="1">
          <mxGeometry relative="1" as="geometry">
            <mxPoint x="2000" y="240.0000000000001" as="targetPoint" />
          </mxGeometry>
        </mxCell>
        <mxCell id="5yPDVFOMv4cVIeS-5JL2-77" value="User Discount Limit &amp;nbsp;" style="whiteSpace=wrap;html=1;align=center;rounded=0;sketch=0;fontColor=#FEFAE0;strokeColor=#DDA15E;fillColor=#BC6C25;" parent="1" vertex="1">
          <mxGeometry x="1850" y="370" width="100" height="30" as="geometry" />
        </mxCell>
        <mxCell id="5yPDVFOMv4cVIeS-5JL2-80" style="edgeStyle=orthogonalEdgeStyle;curved=0;rounded=1;sketch=0;orthogonalLoop=1;jettySize=auto;html=1;fontColor=#FEFAE0;endArrow=classic;endFill=1;strokeColor=#DDA15E;fillColor=#BC6C25;labelBackgroundColor=#283618;" parent="1" source="5yPDVFOMv4cVIeS-5JL2-78" edge="1">
          <mxGeometry relative="1" as="geometry">
            <mxPoint x="2190" y="270" as="targetPoint" />
            <Array as="points">
              <mxPoint x="2190" y="410" />
            </Array>
          </mxGeometry>
        </mxCell>
        <mxCell id="5yPDVFOMv4cVIeS-5JL2-78" value="Type&amp;nbsp;" style="whiteSpace=wrap;html=1;align=center;rounded=0;sketch=0;fontColor=#FEFAE0;strokeColor=#DDA15E;fillColor=#BC6C25;" parent="1" vertex="1">
          <mxGeometry x="2080" y="400" width="100" height="20" as="geometry" />
        </mxCell>
        <mxCell id="5yPDVFOMv4cVIeS-5JL2-81" style="edgeStyle=orthogonalEdgeStyle;curved=0;rounded=1;sketch=0;orthogonalLoop=1;jettySize=auto;html=1;fontColor=#FEFAE0;endArrow=classic;endFill=1;strokeColor=#DDA15E;fillColor=#BC6C25;entryX=0.75;entryY=1;entryDx=0;entryDy=0;labelBackgroundColor=#283618;" parent="1" source="5yPDVFOMv4cVIeS-5JL2-79" target="IQcZgMmbsIFZZEIsL7-R-34" edge="1">
          <mxGeometry relative="1" as="geometry">
            <mxPoint x="2190" y="270.0000000000001" as="targetPoint" />
            <Array as="points">
              <mxPoint x="2200" y="453" />
            </Array>
          </mxGeometry>
        </mxCell>
        <mxCell id="5yPDVFOMv4cVIeS-5JL2-79" value="Limit" style="whiteSpace=wrap;html=1;align=center;rounded=0;sketch=0;fontColor=#FEFAE0;strokeColor=#DDA15E;fillColor=#BC6C25;" parent="1" vertex="1">
          <mxGeometry x="2080" y="440" width="100" height="25" as="geometry" />
        </mxCell>
        <mxCell id="1HTSOsvzioREoPSIAo-s-9" style="edgeStyle=orthogonalEdgeStyle;curved=0;rounded=1;sketch=0;orthogonalLoop=1;jettySize=auto;html=1;fontColor=#FEFAE0;strokeColor=#DDA15E;fillColor=#BC6C25;" edge="1" parent="1" source="1HTSOsvzioREoPSIAo-s-4">
          <mxGeometry relative="1" as="geometry">
            <mxPoint x="280" y="339" as="targetPoint" />
            <Array as="points">
              <mxPoint x="345" y="274.68" />
              <mxPoint x="280" y="274.68" />
            </Array>
          </mxGeometry>
        </mxCell>
        <mxCell id="1HTSOsvzioREoPSIAo-s-4" value="Description" style="whiteSpace=wrap;html=1;align=center;fillColor=#BC6C25;strokeColor=#DDA15E;fontColor=#FEFAE0;" vertex="1" parent="1">
          <mxGeometry x="300" y="199.68" width="70" height="20" as="geometry" />
        </mxCell>
        <mxCell id="1HTSOsvzioREoPSIAo-s-10" style="edgeStyle=orthogonalEdgeStyle;curved=0;rounded=1;sketch=0;orthogonalLoop=1;jettySize=auto;html=1;fontColor=#FEFAE0;strokeColor=#DDA15E;fillColor=#BC6C25;" edge="1" parent="1" source="1HTSOsvzioREoPSIAo-s-5">
          <mxGeometry relative="1" as="geometry">
            <mxPoint x="290" y="340" as="targetPoint" />
            <Array as="points">
              <mxPoint x="430" y="284.68" />
              <mxPoint x="290" y="284.68" />
            </Array>
          </mxGeometry>
        </mxCell>
        <mxCell id="1HTSOsvzioREoPSIAo-s-5" value="Product Type" style="whiteSpace=wrap;html=1;align=center;fillColor=#BC6C25;strokeColor=#DDA15E;fontColor=#FEFAE0;" vertex="1" parent="1">
          <mxGeometry x="410" y="199.68" width="80" height="20" as="geometry" />
        </mxCell>
        <mxCell id="1HTSOsvzioREoPSIAo-s-11" style="edgeStyle=orthogonalEdgeStyle;curved=0;rounded=1;sketch=0;orthogonalLoop=1;jettySize=auto;html=1;entryX=1;entryY=0;entryDx=0;entryDy=0;fontColor=#FEFAE0;strokeColor=#DDA15E;fillColor=#BC6C25;" edge="1" parent="1" source="1HTSOsvzioREoPSIAo-s-6" target="6ZJNAHarv_-wQdy6G1yE-23">
          <mxGeometry relative="1" as="geometry">
            <Array as="points">
              <mxPoint x="550" y="339" />
            </Array>
          </mxGeometry>
        </mxCell>
        <mxCell id="1HTSOsvzioREoPSIAo-s-6" value="Brand" style="whiteSpace=wrap;html=1;align=center;fillColor=#BC6C25;strokeColor=#DDA15E;fontColor=#FEFAE0;" vertex="1" parent="1">
          <mxGeometry x="530" y="199.68" width="80" height="20" as="geometry" />
        </mxCell>
        <mxCell id="1HTSOsvzioREoPSIAo-s-12" style="edgeStyle=orthogonalEdgeStyle;curved=0;rounded=1;sketch=0;orthogonalLoop=1;jettySize=auto;html=1;exitX=0.5;exitY=1;exitDx=0;exitDy=0;fontColor=#FEFAE0;strokeColor=#DDA15E;fillColor=#BC6C25;" edge="1" parent="1" source="1HTSOsvzioREoPSIAo-s-5" target="1HTSOsvzioREoPSIAo-s-5">
          <mxGeometry relative="1" as="geometry" />
        </mxCell>
        <mxCell id="1HTSOsvzioREoPSIAo-s-15" style="edgeStyle=orthogonalEdgeStyle;curved=0;rounded=1;sketch=0;orthogonalLoop=1;jettySize=auto;html=1;entryX=0;entryY=0.5;entryDx=0;entryDy=0;fontColor=#FEFAE0;strokeColor=#DDA15E;fillColor=#BC6C25;" edge="1" parent="1" source="1HTSOsvzioREoPSIAo-s-13" target="1HTSOsvzioREoPSIAo-s-4">
          <mxGeometry relative="1" as="geometry" />
        </mxCell>
        <mxCell id="1HTSOsvzioREoPSIAo-s-13" value="Description Id" style="ellipse;whiteSpace=wrap;html=1;rotation=0;fillColor=#BC6C25;strokeColor=#DDA15E;fontColor=#FEFAE0;" vertex="1" parent="1">
          <mxGeometry x="250" y="144.68" width="60" height="30" as="geometry" />
        </mxCell>
        <mxCell id="1HTSOsvzioREoPSIAo-s-16" style="edgeStyle=orthogonalEdgeStyle;curved=0;rounded=1;sketch=0;orthogonalLoop=1;jettySize=auto;html=1;entryX=0.75;entryY=0;entryDx=0;entryDy=0;fontColor=#FEFAE0;strokeColor=#DDA15E;fillColor=#BC6C25;" edge="1" parent="1" source="1HTSOsvzioREoPSIAo-s-14" target="1HTSOsvzioREoPSIAo-s-4">
          <mxGeometry relative="1" as="geometry">
            <Array as="points">
              <mxPoint x="335" y="200" />
            </Array>
          </mxGeometry>
        </mxCell>
        <mxCell id="1HTSOsvzioREoPSIAo-s-14" value="Attribute" style="ellipse;whiteSpace=wrap;html=1;rotation=0;fillColor=#BC6C25;strokeColor=#DDA15E;fontColor=#FEFAE0;" vertex="1" parent="1">
          <mxGeometry x="305" y="124.68" width="60" height="30" as="geometry" />
        </mxCell>
        <mxCell id="1HTSOsvzioREoPSIAo-s-19" style="edgeStyle=orthogonalEdgeStyle;curved=0;rounded=1;sketch=0;orthogonalLoop=1;jettySize=auto;html=1;fontColor=#FEFAE0;strokeColor=#DDA15E;fillColor=#BC6C25;entryX=0;entryY=0;entryDx=0;entryDy=0;" edge="1" parent="1" source="1HTSOsvzioREoPSIAo-s-17" target="1HTSOsvzioREoPSIAo-s-5">
          <mxGeometry relative="1" as="geometry">
            <mxPoint x="410" y="194.68" as="targetPoint" />
          </mxGeometry>
        </mxCell>
        <mxCell id="1HTSOsvzioREoPSIAo-s-17" value="Product Type Id" style="ellipse;whiteSpace=wrap;html=1;rotation=0;fillColor=#BC6C25;strokeColor=#DDA15E;fontColor=#FEFAE0;" vertex="1" parent="1">
          <mxGeometry x="365" y="124.68" width="60" height="30" as="geometry" />
        </mxCell>
        <mxCell id="1HTSOsvzioREoPSIAo-s-20" style="edgeStyle=orthogonalEdgeStyle;curved=0;rounded=1;sketch=0;orthogonalLoop=1;jettySize=auto;html=1;entryX=0.25;entryY=0;entryDx=0;entryDy=0;fontColor=#FEFAE0;strokeColor=#DDA15E;fillColor=#BC6C25;" edge="1" parent="1" source="1HTSOsvzioREoPSIAo-s-18" target="1HTSOsvzioREoPSIAo-s-5">
          <mxGeometry relative="1" as="geometry" />
        </mxCell>
        <mxCell id="1HTSOsvzioREoPSIAo-s-18" value="Product Type Name" style="ellipse;whiteSpace=wrap;html=1;rotation=0;fillColor=#BC6C25;strokeColor=#DDA15E;fontColor=#FEFAE0;" vertex="1" parent="1">
          <mxGeometry x="430" y="124.68" width="60" height="30" as="geometry" />
        </mxCell>
        <mxCell id="1HTSOsvzioREoPSIAo-s-25" style="edgeStyle=orthogonalEdgeStyle;curved=0;rounded=1;sketch=0;orthogonalLoop=1;jettySize=auto;html=1;entryX=0.25;entryY=0;entryDx=0;entryDy=0;fontColor=#FEFAE0;strokeColor=#DDA15E;fillColor=#BC6C25;" edge="1" parent="1" source="1HTSOsvzioREoPSIAo-s-21" target="1HTSOsvzioREoPSIAo-s-6">
          <mxGeometry relative="1" as="geometry">
            <Array as="points">
              <mxPoint x="600" y="185" />
              <mxPoint x="550" y="185" />
            </Array>
          </mxGeometry>
        </mxCell>
        <mxCell id="1HTSOsvzioREoPSIAo-s-21" value="Brand Name" style="ellipse;whiteSpace=wrap;html=1;rotation=0;fillColor=#BC6C25;strokeColor=#DDA15E;fontColor=#FEFAE0;" vertex="1" parent="1">
          <mxGeometry x="560" y="124.68" width="60" height="30" as="geometry" />
        </mxCell>
        <mxCell id="1HTSOsvzioREoPSIAo-s-24" style="edgeStyle=orthogonalEdgeStyle;curved=0;rounded=1;sketch=0;orthogonalLoop=1;jettySize=auto;html=1;entryX=0;entryY=0;entryDx=0;entryDy=0;fontColor=#FEFAE0;strokeColor=#DDA15E;fillColor=#BC6C25;" edge="1" parent="1" source="1HTSOsvzioREoPSIAo-s-22" target="1HTSOsvzioREoPSIAo-s-6">
          <mxGeometry relative="1" as="geometry" />
        </mxCell>
        <mxCell id="1HTSOsvzioREoPSIAo-s-22" value="Brand Id" style="ellipse;whiteSpace=wrap;html=1;rotation=0;fillColor=#BC6C25;strokeColor=#DDA15E;fontColor=#FEFAE0;" vertex="1" parent="1">
          <mxGeometry x="500" y="124.68" width="60" height="30" as="geometry" />
        </mxCell>
        <mxCell id="1HTSOsvzioREoPSIAo-s-48" style="edgeStyle=orthogonalEdgeStyle;curved=0;rounded=1;sketch=0;orthogonalLoop=1;jettySize=auto;html=1;entryX=1;entryY=0.25;entryDx=0;entryDy=0;fontColor=#FEFAE0;strokeColor=#DDA15E;fillColor=#BC6C25;" edge="1" parent="1" source="1HTSOsvzioREoPSIAo-s-31" target="6ZJNAHarv_-wQdy6G1yE-23">
          <mxGeometry relative="1" as="geometry">
            <Array as="points">
              <mxPoint x="690" y="350" />
              <mxPoint x="345" y="350" />
            </Array>
          </mxGeometry>
        </mxCell>
        <mxCell id="1HTSOsvzioREoPSIAo-s-31" value="Price" style="whiteSpace=wrap;html=1;align=center;fillColor=#BC6C25;strokeColor=#DDA15E;fontColor=#FEFAE0;" vertex="1" parent="1">
          <mxGeometry x="660" y="199.68" width="80" height="20" as="geometry" />
        </mxCell>
        <mxCell id="1HTSOsvzioREoPSIAo-s-35" style="edgeStyle=orthogonalEdgeStyle;curved=0;rounded=1;sketch=0;orthogonalLoop=1;jettySize=auto;html=1;entryX=0.15;entryY=-0.084;entryDx=0;entryDy=0;entryPerimeter=0;fontColor=#FEFAE0;strokeColor=#DDA15E;fillColor=#BC6C25;" edge="1" parent="1" source="1HTSOsvzioREoPSIAo-s-32" target="1HTSOsvzioREoPSIAo-s-31">
          <mxGeometry relative="1" as="geometry">
            <Array as="points">
              <mxPoint x="670" y="177" />
              <mxPoint x="672" y="177" />
            </Array>
          </mxGeometry>
        </mxCell>
        <mxCell id="1HTSOsvzioREoPSIAo-s-32" value="Price Id" style="ellipse;whiteSpace=wrap;html=1;rotation=0;fillColor=#BC6C25;strokeColor=#DDA15E;fontColor=#FEFAE0;" vertex="1" parent="1">
          <mxGeometry x="640" y="124.68" width="60" height="30" as="geometry" />
        </mxCell>
        <mxCell id="1HTSOsvzioREoPSIAo-s-36" style="edgeStyle=orthogonalEdgeStyle;curved=0;rounded=1;sketch=0;orthogonalLoop=1;jettySize=auto;html=1;entryX=0.338;entryY=0.066;entryDx=0;entryDy=0;entryPerimeter=0;fontColor=#FEFAE0;strokeColor=#DDA15E;fillColor=#BC6C25;" edge="1" parent="1" source="1HTSOsvzioREoPSIAo-s-33" target="1HTSOsvzioREoPSIAo-s-31">
          <mxGeometry relative="1" as="geometry" />
        </mxCell>
        <mxCell id="1HTSOsvzioREoPSIAo-s-33" value="Cost Price" style="ellipse;whiteSpace=wrap;html=1;rotation=0;fillColor=#BC6C25;strokeColor=#DDA15E;fontColor=#FEFAE0;" vertex="1" parent="1">
          <mxGeometry x="700" y="124.68" width="60" height="30" as="geometry" />
        </mxCell>
        <mxCell id="1HTSOsvzioREoPSIAo-s-37" style="edgeStyle=orthogonalEdgeStyle;curved=0;rounded=1;sketch=0;orthogonalLoop=1;jettySize=auto;html=1;entryX=0.925;entryY=-0.034;entryDx=0;entryDy=0;entryPerimeter=0;fontColor=#FEFAE0;strokeColor=#DDA15E;fillColor=#BC6C25;" edge="1" parent="1" source="1HTSOsvzioREoPSIAo-s-34" target="1HTSOsvzioREoPSIAo-s-31">
          <mxGeometry relative="1" as="geometry">
            <Array as="points">
              <mxPoint x="790" y="180" />
              <mxPoint x="734" y="180" />
            </Array>
          </mxGeometry>
        </mxCell>
        <mxCell id="1HTSOsvzioREoPSIAo-s-34" value="Selling Price" style="ellipse;whiteSpace=wrap;html=1;rotation=0;fillColor=#BC6C25;strokeColor=#DDA15E;fontColor=#FEFAE0;" vertex="1" parent="1">
          <mxGeometry x="760" y="124.68" width="60" height="30" as="geometry" />
        </mxCell>
        <mxCell id="1HTSOsvzioREoPSIAo-s-40" style="edgeStyle=orthogonalEdgeStyle;curved=0;rounded=1;sketch=0;orthogonalLoop=1;jettySize=auto;html=1;entryX=0;entryY=0.5;entryDx=0;entryDy=0;fontColor=#FEFAE0;strokeColor=#DDA15E;fillColor=#BC6C25;" edge="1" parent="1" source="1HTSOsvzioREoPSIAo-s-39" target="6ZJNAHarv_-wQdy6G1yE-23">
          <mxGeometry relative="1" as="geometry">
            <Array as="points">
              <mxPoint x="105" y="359" />
            </Array>
          </mxGeometry>
        </mxCell>
        <mxCell id="1HTSOsvzioREoPSIAo-s-39" value="Tax&amp;nbsp;" style="whiteSpace=wrap;html=1;align=center;fillColor=#BC6C25;strokeColor=#DDA15E;fontColor=#FEFAE0;" vertex="1" parent="1">
          <mxGeometry x="70" y="242.18" width="70" height="20" as="geometry" />
        </mxCell>
        <mxCell id="1HTSOsvzioREoPSIAo-s-44" style="edgeStyle=orthogonalEdgeStyle;curved=0;rounded=1;sketch=0;orthogonalLoop=1;jettySize=auto;html=1;entryX=0;entryY=0.25;entryDx=0;entryDy=0;fontColor=#FEFAE0;strokeColor=#DDA15E;fillColor=#BC6C25;" edge="1" parent="1" source="1HTSOsvzioREoPSIAo-s-41" target="1HTSOsvzioREoPSIAo-s-39">
          <mxGeometry relative="1" as="geometry" />
        </mxCell>
        <mxCell id="1HTSOsvzioREoPSIAo-s-41" value="Tax Id" style="ellipse;whiteSpace=wrap;html=1;rotation=0;fillColor=#BC6C25;strokeColor=#DDA15E;fontColor=#FEFAE0;" vertex="1" parent="1">
          <mxGeometry x="10" y="174.68" width="60" height="30" as="geometry" />
        </mxCell>
        <mxCell id="1HTSOsvzioREoPSIAo-s-45" style="edgeStyle=orthogonalEdgeStyle;curved=0;rounded=1;sketch=0;orthogonalLoop=1;jettySize=auto;html=1;entryX=0.25;entryY=0;entryDx=0;entryDy=0;fontColor=#FEFAE0;strokeColor=#DDA15E;fillColor=#BC6C25;" edge="1" parent="1" source="1HTSOsvzioREoPSIAo-s-42" target="1HTSOsvzioREoPSIAo-s-39">
          <mxGeometry relative="1" as="geometry">
            <Array as="points">
              <mxPoint x="88" y="225" />
            </Array>
          </mxGeometry>
        </mxCell>
        <mxCell id="1HTSOsvzioREoPSIAo-s-42" value="Good Type" style="ellipse;whiteSpace=wrap;html=1;rotation=0;fillColor=#BC6C25;strokeColor=#DDA15E;fontColor=#FEFAE0;" vertex="1" parent="1">
          <mxGeometry x="70" y="174.68" width="60" height="30" as="geometry" />
        </mxCell>
        <mxCell id="1HTSOsvzioREoPSIAo-s-46" style="edgeStyle=orthogonalEdgeStyle;curved=0;rounded=1;sketch=0;orthogonalLoop=1;jettySize=auto;html=1;fontColor=#FEFAE0;strokeColor=#DDA15E;fillColor=#BC6C25;" edge="1" parent="1" source="1HTSOsvzioREoPSIAo-s-43" target="1HTSOsvzioREoPSIAo-s-39">
          <mxGeometry relative="1" as="geometry">
            <Array as="points">
              <mxPoint x="160" y="220" />
              <mxPoint x="105" y="220" />
            </Array>
          </mxGeometry>
        </mxCell>
        <mxCell id="1HTSOsvzioREoPSIAo-s-43" value="Percentage" style="ellipse;whiteSpace=wrap;html=1;rotation=0;fillColor=#BC6C25;strokeColor=#DDA15E;fontColor=#FEFAE0;" vertex="1" parent="1">
          <mxGeometry x="130" y="174.68" width="60" height="30" as="geometry" />
        </mxCell>
        <mxCell id="1HTSOsvzioREoPSIAo-s-47" value="Edible Features" style="whiteSpace=wrap;html=1;fillColor=#BC6C25;strokeColor=#DDA15E;fontColor=#FEFAE0;" vertex="1" parent="1">
          <mxGeometry x="80" y="442.5" width="105" height="37.5" as="geometry" />
        </mxCell>
        <mxCell id="1HTSOsvzioREoPSIAo-s-50" value="Accessory Features" style="whiteSpace=wrap;html=1;fillColor=#BC6C25;strokeColor=#DDA15E;fontColor=#FEFAE0;" vertex="1" parent="1">
          <mxGeometry x="940" y="442.5" width="105" height="37.5" as="geometry" />
        </mxCell>
        <mxCell id="1HTSOsvzioREoPSIAo-s-60" value="Name" style="ellipse;whiteSpace=wrap;html=1;rotation=0;fillColor=#BC6C25;strokeColor=#DDA15E;fontColor=#FEFAE0;" vertex="1" parent="1">
          <mxGeometry x="-55" y="550" width="60" height="35" as="geometry" />
        </mxCell>
        <mxCell id="1HTSOsvzioREoPSIAo-s-61" value="Images&amp;nbsp;" style="ellipse;shape=doubleEllipse;margin=3;whiteSpace=wrap;html=1;align=center;rounded=0;sketch=0;fontColor=#FEFAE0;strokeColor=#DDA15E;fillColor=#BC6C25;" vertex="1" parent="1">
          <mxGeometry x="15" y="550" width="70" height="40" as="geometry" />
        </mxCell>
        <mxCell id="1HTSOsvzioREoPSIAo-s-62" value="Grams" style="ellipse;whiteSpace=wrap;html=1;rotation=0;fillColor=#BC6C25;strokeColor=#DDA15E;fontColor=#FEFAE0;" vertex="1" parent="1">
          <mxGeometry x="110" y="555" width="60" height="35" as="geometry" />
        </mxCell>
        <mxCell id="1HTSOsvzioREoPSIAo-s-63" value="Kg" style="ellipse;whiteSpace=wrap;html=1;rotation=0;fillColor=#BC6C25;strokeColor=#DDA15E;fontColor=#FEFAE0;" vertex="1" parent="1">
          <mxGeometry x="180" y="555" width="60" height="35" as="geometry" />
        </mxCell>
      </root>
    </mxGraphModel>
  </diagram>
</mxfile>
